<svg width="20" height="20" viewBox="0 0 20 20" fill="none" xmlns="http://www.w3.org/2000/svg">
<path d="M10.0733 0C5.61425 0 1.94861 3.75692 1.59119 8.54697H0.697684C0.415009 8.54697 0.160268 8.73508 0.0526045 9.02328C-0.0550591 9.31149 0.00563766 9.64277 0.206305 9.86226L1.7689 11.5717C2.0409 11.8692 2.47966 11.8692 2.75167 11.5717L4.31426 9.86226C4.51493 9.64277 4.57562 9.31149 4.46796 9.02328C4.3603 8.73508 4.10555 8.54697 3.82288 8.54697H2.99233C3.34556 4.6171 6.37646 1.53846 10.0733 1.53846C12.6495 1.53846 14.9046 3.03431 16.1538 5.27466C16.3556 5.63656 16.7853 5.74959 17.1135 5.5271C17.4418 5.3046 17.5443 4.83084 17.3425 4.46893C15.8483 1.78899 13.1508 0 10.0733 0Z" fill="#BABABA"/>
<path opacity="0.5" d="M18.2241 8.42728C17.9524 8.13107 17.515 8.13107 17.2433 8.42728L15.6747 10.1367C15.4734 10.356 15.4123 10.6875 15.5198 10.9761C15.6273 11.2646 15.8822 11.453 16.1652 11.453H17.0015C16.6468 15.3807 13.6054 18.4615 9.89082 18.4615C7.30252 18.4615 5.038 16.9644 3.78415 14.7242C3.5818 14.3627 3.15195 14.2505 2.82404 14.4736C2.49615 14.6967 2.39437 15.1707 2.59672 15.5322C4.09682 18.2123 6.80374 20 9.89082 20C14.3632 20 18.044 16.2453 18.4027 11.453H19.3022C19.5852 11.453 19.8401 11.2646 19.9476 10.9761C20.0551 10.6875 19.9939 10.356 19.7927 10.1367L18.2241 8.42728Z" fill="#BABABA"/>
</svg>
