<svg width="44" height="44" viewBox="0 0 44 44" fill="none" xmlns="http://www.w3.org/2000/svg">
<path d="M15.1435 42H28.8565C38.0442 42 39.6898 38.7787 40.1698 34.857L41.8839 22.8521C42.501 17.97 40.9011 13.9884 31.142 13.9884H12.858C3.09888 13.9884 1.49902 17.97 2.11611 22.8521L3.83024 34.857C4.31019 38.7787 5.95576 42 15.1435 42Z" stroke="#FF8A00" stroke-width="3" stroke-miterlimit="10" stroke-linecap="round" stroke-linejoin="round"/>
<path opacity="0.4" d="M11.7134 13.3281V11.3873C11.7134 6.88544 15.8502 2.46361 20.9926 2.04343C27.1177 1.52322 32.283 5.74497 32.283 11.0072V13.7683" stroke="black" stroke-width="3" stroke-miterlimit="10" stroke-linecap="round" stroke-linejoin="round"/>
<path d="M18.0837 21.6316H25.844C28.4157 21.6316 30.5002 22.8947 30.5002 24.4527C30.5002 26.0109 28.4157 27.2739 25.844 27.2739M18.0837 21.6316V27.2739M18.0837 21.6316H13.4275M18.0837 21.6316V18.8104M25.844 27.2739H18.0837M25.844 27.2739C28.4157 27.2739 30.5002 28.5369 30.5002 30.0951C30.5002 31.6532 28.4157 32.9163 25.844 32.9163H18.0837M18.0837 27.2739V32.9163M18.0837 32.9163H13.4275M18.0837 32.9163V35.7374M22.7399 21.6316V18.8104M22.7399 35.7374V32.9163" stroke="#FAFF00" stroke-width="2" stroke-linecap="round" stroke-linejoin="round"/>
</svg>
