<svg width="40" height="40" viewBox="0 0 40 40" fill="none" xmlns="http://www.w3.org/2000/svg">
<path fill-rule="evenodd" clip-rule="evenodd" d="M22 14C22 12.8954 21.1046 12 20 12C18.8954 12 18 12.8954 18 14V18H14C12.8954 18 12 18.8954 12 20C12 21.1046 12.8954 22 14 22H18V26C18 27.1046 18.8954 28 20 28C21.1046 28 22 27.1046 22 26V22H26C27.1046 22 28 21.1046 28 20C28 18.8954 27.1046 18 26 18H22V14ZM10.5001 0.77564C13.0976 0.1984 16.2486 0 20 0C23.7514 0 26.9024 0.1984 29.4998 0.77564C32.12 1.35794 34.2976 2.352 35.9728 4.02716C37.648 5.70232 38.642 7.88004 39.2244 10.5001C39.8016 13.0976 40 16.2486 40 20C40 23.7514 39.8016 26.9024 39.2244 29.4998C38.642 32.12 37.648 34.2976 35.9728 35.9728C34.2976 37.648 32.12 38.642 29.4998 39.2244C26.9024 39.8016 23.7514 40 20 40C16.2486 40 13.0976 39.8016 10.5001 39.2244C7.88004 38.642 5.70232 37.648 4.02716 35.9728C2.352 34.2976 1.35794 32.12 0.77564 29.4998C0.1984 26.9024 0 23.7514 0 20C0 16.2486 0.1984 13.0976 0.77564 10.5001C1.35794 7.88004 2.352 5.70232 4.02716 4.02716C5.70232 2.352 7.88004 1.35794 10.5001 0.77564Z" fill="#121212"/>
</svg>
