<svg width="32" height="32" viewBox="0 0 32 32" fill="none" xmlns="http://www.w3.org/2000/svg">
<path d="M13.4813 2.75934H6.70572C4.70854 2.75934 3.70993 2.75934 2.94711 3.1441C2.2761 3.48254 1.73056 4.02258 1.38868 4.6868C1 5.44193 1 6.43045 1 8.40747V25.3519C1 27.3289 1 28.3175 1.38868 29.0726C1.73056 29.7368 2.2761 30.2769 2.94711 30.6152C3.70993 31 4.70854 31 6.70572 31H23.8229C25.8201 31 26.8187 31 27.5815 30.6152C28.2525 30.2769 28.7981 29.7368 29.1399 29.0726C29.5286 28.3175 29.5286 27.3289 29.5286 25.3519V17.7622M21.5049 5.4069L26.5481 10.3992M13.0581 13.7684L24.9123 2.03394C26.3049 0.655354 28.5629 0.655354 29.9555 2.03394C31.3482 3.41253 31.3482 5.64765 29.9555 7.02624L17.7203 19.1379C16.3623 20.4823 15.6833 21.1544 14.9098 21.6889C14.2234 22.1635 13.4829 22.5564 12.7039 22.86C11.8261 23.202 10.8848 23.39 9.00215 23.7662L8.13215 23.9398L8.21675 23.3535C8.51614 21.279 8.66585 20.2417 9.00635 19.2732C9.30851 18.4138 9.72128 17.5968 10.2345 16.8419C10.8128 15.9911 11.5613 15.2502 13.0581 13.7684Z" stroke="#BFBFBF" stroke-width="2" stroke-linecap="round" stroke-linejoin="round"/>
</svg>
