<svg width="14" height="14" viewBox="0 0 14 14" fill="none" xmlns="http://www.w3.org/2000/svg">
<path d="M9.66667 3.66667C9.66667 3.04669 9.66667 2.73669 9.59853 2.48236C9.4136 1.79218 8.87447 1.25308 8.18433 1.06815C7.93 1 7.62 1 7 1C6.38 1 6.07 1 5.81567 1.06815C5.12551 1.25308 4.58641 1.79218 4.40148 2.48236C4.33333 2.73669 4.33333 3.04669 4.33333 3.66667M4.2 13H9.8C10.9201 13 11.4801 13 11.908 12.782C12.2843 12.5903 12.5903 12.2843 12.782 11.908C13 11.4801 13 10.9201 13 9.8V6.86667C13 5.74653 13 5.18651 12.782 4.75869C12.5903 4.38236 12.2843 4.0764 11.908 3.88465C11.4801 3.66667 10.9201 3.66667 9.8 3.66667H4.2C3.07989 3.66667 2.51984 3.66667 2.09202 3.88465C1.71569 4.0764 1.40973 4.38236 1.21799 4.75869C1 5.18651 1 5.74653 1 6.86667V9.8C1 10.9201 1 11.4801 1.21799 11.908C1.40973 12.2843 1.71569 12.5903 2.09202 12.782C2.51984 13 3.07989 13 4.2 13Z" stroke="#FF8A00" stroke-linecap="round" stroke-linejoin="round"/>
<path d="M6.12001 9.80002C5.97601 9.80002 5.88001 9.75202 5.78401 9.65602L4.34401 8.21602C4.15201 8.02402 4.15201 7.73602 4.34401 7.54402C4.53601 7.35202 4.82401 7.35202 5.01601 7.54402L6.45601 8.98402C6.64801 9.17602 6.64801 9.46402 6.45601 9.65602C6.36001 9.75202 6.26401 9.80002 6.12001 9.80002Z" fill="#FF8A00"/>
<path d="M6.29999 9.79999C6.14999 9.79999 6.04999 9.74999 5.94999 9.64999C5.74999 9.44999 5.74999 9.14999 5.94999 8.94999L8.94999 5.94999C9.14999 5.74999 9.44999 5.74999 9.64999 5.94999C9.84999 6.14999 9.84999 6.44999 9.64999 6.64999L6.64999 9.64999C6.54999 9.74999 6.44999 9.79999 6.29999 9.79999Z" fill="#FF8A00"/>
</svg>
