<svg width="30" height="30" viewBox="0 0 30 30" fill="none" xmlns="http://www.w3.org/2000/svg">
<path d="M30 9.75C30 14.64 26.4 18.675 21.72 19.38V19.29C21.2551 13.47 16.5301 8.745 10.6651 8.28H10.6201C11.3251 3.6 15.3601 0 20.2501 0C25.635 0 30 4.365 30 9.75Z" fill="#525252"/>
<path d="M19.4699 19.47C19.0949 14.715 15.2849 10.905 10.5299 10.53C10.275 10.515 10.005 10.5 9.74995 10.5C4.36498 10.5 0 14.865 0 20.25C0 25.635 4.36498 30 9.74995 30C15.1349 30 19.4999 25.635 19.4999 20.25C19.4999 19.995 19.4849 19.725 19.4699 19.47ZM11.0699 21.57L9.74995 24L8.42996 21.57L5.99997 20.25L8.42996 18.93L9.74995 16.5L11.0699 18.93L13.4999 20.25L11.0699 21.57Z" fill="#525252"/>
</svg>
