<svg width="30" height="25" viewBox="0 0 30 25" fill="none" xmlns="http://www.w3.org/2000/svg">
<path d="M15.0709 25C17.0065 25 18.5757 23.2624 18.5757 21.1191C18.5757 18.9757 17.0065 17.2381 15.0709 17.2381C13.1353 17.2381 11.5662 18.9757 11.5662 21.1191C11.5662 23.2624 13.1353 25 15.0709 25Z" fill="#DDDDDD"/>
<path d="M23.447 11.7687C23.395 11.7095 23.3401 11.6567 23.2867 11.6023L23.1292 11.4375C23.1032 11.4072 23.0743 11.3848 23.0411 11.356C18.5092 6.79674 11.5734 6.97751 7.24805 11.7671L6.74097 12.3302L6.03887 13.1077C5.18363 14.0547 5.18796 15.5984 6.04465 16.5471C6.90277 17.4989 8.29687 17.5005 9.15067 16.5535L10.3613 15.2129C13.1119 12.1686 17.586 12.1686 20.3352 15.2113L21.2092 16.1487C22.0558 17.0862 23.4369 17.0846 24.2878 16.1407C24.6995 15.6864 24.9264 15.0801 24.9278 14.4354C24.9292 13.7939 24.7053 13.1876 24.2936 12.7349L23.447 11.7687Z" fill="#DDDDDD"/>
<path d="M29.4178 6.97109L28.6897 6.16483C28.6868 6.16163 28.6854 6.15683 28.6796 6.15523L28.1046 5.51534C28.0035 5.40496 27.8937 5.30898 27.7781 5.22579C20.3916 -1.95538 9.15644 -1.73462 2.00538 5.88328C1.97071 5.91847 1.9317 5.94247 1.89703 5.98086L0.582389 7.43821C-0.197728 8.30046 -0.193394 9.70342 0.591057 10.5721C1.37406 11.4391 2.64103 11.4455 3.42115 10.5801L4.73579 9.12592C4.74445 9.11312 4.75168 9.10193 4.76034 9.09393C10.5433 2.90779 19.7169 2.86939 25.5461 8.96755L26.5805 10.1146C27.3592 10.9768 28.629 10.9736 29.412 10.1066C30.1936 9.2379 30.1965 7.83334 29.4178 6.97109Z" fill="#DDDDDD"/>
</svg>
