<svg width="30" height="30" viewBox="0 0 30 30" fill="none" xmlns="http://www.w3.org/2000/svg">
<path d="M15 30C6.75 30 0 23.25 0 15C0 6.75 6.75 0 15 0C23.25 0 30 6.75 30 15C30 23.25 23.25 30 15 30ZM15 2.5C8.125 2.5 2.5 8.125 2.5 15C2.5 21.875 8.125 27.5 15 27.5C21.875 27.5 27.5 21.875 27.5 15C27.5 8.125 21.875 2.5 15 2.5Z" fill="#00C414"/>
<path d="M13.75 20C13.375 20 13.125 19.875 12.875 19.625L9.125 15.875C8.625 15.375 8.625 14.625 9.125 14.125C9.625 13.625 10.375 13.625 10.875 14.125L14.625 17.875C15.125 18.375 15.125 19.125 14.625 19.625C14.375 19.875 14.125 20 13.75 20Z" fill="#00820D"/>
<path d="M13.75 20C13.375 20 13.125 19.875 12.875 19.625C12.375 19.125 12.375 18.375 12.875 17.875L20.375 10.375C20.875 9.875 21.625 9.875 22.125 10.375C22.625 10.875 22.625 11.625 22.125 12.125L14.625 19.625C14.375 19.875 14.125 20 13.75 20Z" fill="#00C414"/>
</svg>
